# Blender v2.80 (sub 75) OBJ File: 'untitled.blend'
# www.blender.org
mtllib untitled.mtl
o Cube
v 0.809579 0.921449 -1.264766
v 0.809579 -0.921047 -1.264766
v 0.809579 0.921449 1.261000
v 0.809579 -0.921047 1.261000
v -0.601577 0.936417 -1.285260
v -0.601577 -0.936081 -1.285260
v -0.601577 0.936417 1.282111
v -0.601577 -0.936081 1.282111
v -0.660663 -0.942245 0.855352
v 0.799758 0.941854 0.823604
v -0.660663 0.942497 0.855352
v 0.799730 -0.941586 0.823604
v -0.660663 0.942497 -0.873568
v 0.799913 -0.941585 -0.841072
v -0.660663 -0.942245 -0.873568
v 0.799940 0.941853 -0.841072
v 0.799940 0.614353 -1.289939
v -0.660663 0.636254 1.291367
v 0.799758 0.614354 1.287202
v -0.660663 0.636254 -1.293728
v -0.837921 0.801773 1.077165
v -0.837921 0.801773 -1.097742
v 0.799913 -0.612513 -1.289939
v 0.799730 -0.612515 1.287202
v -0.660663 -0.634311 -1.293728
v -0.837921 -0.799578 1.077165
v -0.837921 -0.799578 -1.097742
v -0.660663 -0.634311 1.291367
v 0.543718 -0.941219 -1.292319
v 0.543718 0.941485 1.289826
v 0.543718 -0.941219 1.289826
v 0.543718 0.941485 -1.292319
v 0.542927 -0.959970 0.846122
v 0.542927 0.959980 0.846122
v 0.542927 0.959980 -0.864239
v 0.542927 -0.959970 -0.864239
v 0.542927 0.629366 -1.318077
v 0.542927 0.629366 1.317978
v 0.542927 -0.627433 1.317978
v 0.542927 -0.627433 -1.318077
v 0.645974 0.608287 0.863265
v 0.724767 0.842793 1.111836
v 0.645974 0.608287 -0.882985
v 0.726356 0.842783 -1.129654
v 0.645974 -0.606183 0.863265
v 0.724530 -0.841098 1.111836
v 0.645974 -0.606183 -0.882985
v 0.726119 -0.841087 -1.129654
v 0.645974 0.608287 0.863265
v 0.645974 0.608287 -0.882985
v 0.645974 -0.606183 0.863265
v 0.645974 -0.606183 -0.882985
v 0.521311 -1.197258 0.276123
v 1.724198 2.319390 4.692340
v 0.288056 0.259648 0.778814
v 0.235433 -0.024538 0.627056
v 0.235435 -0.024539 0.627064
v -0.772911 0.327338 -2.048708
v -1.198367 0.402672 0.579073
v -1.198363 0.538409 -0.635015
v -1.189499 -0.377511 -0.670088
v -1.189614 -0.363536 0.647978
vt 0.394566 0.227071
vt 0.625000 0.227071
vt 0.625000 0.250000
vt 0.394566 0.250000
vt 0.604317 0.269566
vt 0.625000 0.269566
vt 0.625000 0.500000
vt 0.604317 0.500000
vt 0.604317 0.729021
vt 0.625000 0.729021
vt 0.625000 0.750000
vt 0.604317 0.750000
vt 0.605434 0.977071
vt 0.625000 0.977071
vt 0.625000 1.000000
vt 0.605434 1.000000
vt 0.354317 0.500000
vt 0.375000 0.500000
vt 0.375000 0.520979
vt 0.362800 0.513593
vt 0.854317 0.730434
vt 0.875000 0.730434
vt 0.875000 0.750000
vt 0.854317 0.750000
vt 0.131700 0.735933
vt 0.368528 0.735940
vt 0.354317 0.750000
vt 0.145968 0.750000
vt 0.605434 0.770979
vt 0.625000 0.770979
vt 0.625000 0.522929
vt 0.604317 0.522929
vt 0.394566 0.020979
vt 0.625000 0.020979
vt 0.394566 0.000000
vt 0.625000 0.000000
vt 0.605434 0.750000
vt 0.625000 0.750000
vt 0.145968 0.500000
vt 0.368527 0.512512
vt 0.131701 0.512520
vt 0.395968 0.522929
vt 0.454058 0.561640
vt 0.451824 0.690419
vt 0.395968 0.729021
vt 0.125000 0.520979
vt 0.136238 0.509390
vt 0.136313 0.738855
vt 0.125000 0.727071
vt 0.395968 0.500000
vt 0.362800 0.734843
vt 0.375000 0.727071
vt 0.375000 0.750000
vt 0.645968 0.730434
vt 0.645968 0.750000
vt 0.164739 0.534642
vt 0.335547 0.534642
vt 0.335547 0.713408
vt 0.164739 0.713408
vt 0.395968 0.750000
vt 0.395968 0.269566
vt 0.375000 0.269566
vt 0.375000 0.500000
vt 0.375000 0.729021
vt 0.375000 0.750000
vt 0.125000 0.500000
vt 0.137398 0.513594
vt 0.625000 0.730434
vt 0.137397 0.734842
vt 0.125000 0.750000
vt 0.375000 0.522929
vt 0.625000 0.500000
vt 0.645968 0.500000
vt 0.375000 0.250000
vt 0.395968 0.250000
vt 0.604317 0.250000
vt 0.854317 0.500000
vt 0.375000 0.770979
vt 0.375000 0.000000
vt 0.375000 0.020979
vt 0.375000 0.227071
vt 0.375000 0.977071
vt 0.875000 0.500000
vt 0.375000 1.000000
vt 0.625000 0.250000
vt 0.375000 0.250000
vt 0.363956 0.509390
vt 0.363880 0.738855
vt 0.335547 0.713408
vt 0.335547 0.534642
vt 0.164739 0.713408
vt 0.164739 0.534642
vt 0.570231 0.688905
vt 0.550697 0.566486
vn -0.0096 0.9995 0.0289
vn -0.0145 0.0624 0.9979
vn -0.6801 0.5924 -0.4318
vn 0.0777 -0.9960 0.0435
vn 0.8646 -0.4059 0.2962
vn 0.1108 0.0796 -0.9906
vn 0.9193 -0.0001 -0.3936
vn 0.0714 -0.9974 0.0000
vn -0.6943 0.5890 0.4137
vn -0.0145 0.9999 0.0000
vn -0.0096 0.9995 -0.0299
vn 0.0778 -0.9960 -0.0450
vn 0.9086 -0.0001 0.4177
vn -0.6218 0.7832 0.0000
vn -0.7734 -0.6339 0.0025
vn 0.8033 0.5955 0.0004
vn -0.7704 0.0000 0.6375
vn 0.8709 -0.4014 -0.2835
vn 0.1088 -0.0000 -0.9941
vn 1.0000 0.0000 0.0000
vn -0.7417 0.0000 -0.6708
vn -0.0221 0.0000 0.9998
vn -0.0145 -0.0621 0.9980
vn -0.6829 -0.5892 -0.4318
vn 0.8657 0.4036 0.2959
vn 0.1108 -0.0792 -0.9907
vn 0.8720 0.3991 -0.2833
vn -0.6970 -0.5857 0.4137
vn -0.6270 -0.7790 0.0000
vn -0.0133 -0.0568 -0.9983
vn 0.1185 -0.0844 0.9894
vn 0.1190 -0.0000 0.9929
vn -0.0202 0.0000 -0.9998
vn -0.0097 -0.9995 -0.0303
vn 0.0770 0.9960 -0.0445
vn 0.0704 0.9975 0.0000
vn -0.0147 -0.9999 0.0000
vn -0.0133 0.0571 -0.9983
vn -0.0097 -0.9995 0.0293
vn 0.1185 0.0848 0.9893
vn 0.0770 0.9961 0.0431
vn 0.9469 -0.3214 0.0004
vn 0.9534 -0.0001 -0.3018
vn 0.9509 -0.0001 0.3094
vn 0.9474 0.3200 0.0004
vn 0.8000 -0.5999 0.0004
vn 0.0000 0.0000 1.0000
vn -0.9365 0.3507 -0.0010
vn -0.9999 -0.0105 -0.0006
usemtl Material
s off
f 34/1/1 11/2/1 7/3/1 30/4/1
f 38/5/2 30/6/2 7/7/2 18/8/2
f 22/9/3 13/10/3 5/11/3 20/12/3
f 33/13/4 12/14/4 4/15/4 31/16/4
f 17/17/5 1/18/5 16/19/5 44/20/5
f 37/21/6 32/22/6 1/23/6 17/24/6
f 46/25/7 42/26/7 19/27/7 24/28/7
f 36/29/8 14/30/8 12/14/8 33/13/8
f 18/8/9 7/7/9 11/31/9 21/32/9
f 35/33/10 13/34/10 11/2/10 34/1/10
f 32/35/11 5/36/11 13/34/11 35/33/11
f 29/37/12 2/38/12 14/30/12 36/29/12
f 23/39/13 17/17/13 44/40/13 48/41/13
f 21/32/14 11/31/14 13/10/14 22/9/14
f 26/42/15 62/43/15 61/44/15 27/45/15
f 14/46/16 48/47/16 46/48/16 12/49/16
f 28/50/17 18/8/17 21/32/17 26/42/17
f 42/51/18 10/52/18 3/53/18 19/27/18
f 40/54/19 37/21/19 17/24/19 23/55/19
f 47/56/20 43/57/20 41/58/20 45/59/20
f 27/45/21 22/9/21 20/12/21 25/60/21
f 39/61/22 38/5/22 18/8/22 28/50/22
f 31/62/23 39/61/23 28/50/23 8/63/23
f 15/64/24 27/45/24 25/60/24 6/65/24
f 2/66/25 23/39/25 48/67/25 14/46/25
f 29/68/26 40/54/26 23/55/26 2/38/26
f 12/49/27 46/69/27 24/28/27 4/70/27
f 8/63/28 28/50/28 26/42/28 9/71/28
f 9/71/29 26/42/29 27/45/29 15/64/29
f 6/72/30 25/73/30 40/54/30 29/68/30
f 4/74/31 24/75/31 39/61/31 31/62/31
f 24/75/32 19/76/32 38/5/32 39/61/32
f 25/73/33 20/77/33 37/21/33 40/54/33
f 6/65/34 29/37/34 36/29/34 15/78/34
f 1/79/35 32/35/35 35/33/35 16/80/35
f 16/80/36 35/33/36 34/1/36 10/81/36
f 15/78/37 36/29/37 33/13/37 9/82/37
f 20/77/38 5/83/38 32/22/38 37/21/38
f 9/82/39 33/13/39 31/16/39 8/84/39
f 19/76/40 3/85/40 30/6/40 38/5/40
f 10/81/41 34/1/41 30/4/41 3/86/41
f 44/87/42 42/88/42 49/89/42 50/90/42
f 42/26/43 46/25/43 51/91/43 49/89/43
f 50/90/44 52/92/44 48/41/44 44/40/44
f 52/92/45 51/91/45 46/48/45 48/47/45
f 44/87/46 16/19/46 10/52/46 42/88/46
f 41/58/47 43/57/47 50/90/47 49/89/47
f 45/59/47 41/58/47 49/89/47 51/91/47
f 43/57/47 47/56/47 52/92/47 50/90/47
f 47/56/47 45/59/47 51/91/47 52/92/47
f 27/45/48 61/44/48 60/93/48 59/94/48 62/43/48 26/42/48 21/32/48 22/9/48
f 59/94/49 60/93/49 61/44/49 62/43/49
